<svg xmlns="http://www.w3.org/2000/svg" xmlns:xlink="http://www.w3.org/1999/xlink" width="1082.439" height="449.881" xmlns:v="https://vecta.io/nano"><path fill="#ffb9b9" d="M77.591 390.495l-24.819-1.655 8.273 37.229 28.128-11.582-11.582-23.992z"/><use xlink:href="#B" fill="#2f2e41"/><use xlink:href="#B" opacity=".1"/><path d="M310.064 358.23l-7.446 5.791-60.393-20.683-14.064-5.791-28.128 5.791s0-23.165 26.474-22.337l27.301 6.618 32.265 2.482z" fill="#ffb9b9"/><path fill="#2f2e41" d="M363.839 419.451l-18.201 11.582h-21.51l-100.104-37.229-146.433 26.474-4.137-31.438 134.024-58.738 117.478 38.883 38.883 50.466z"/><g fill="#ffb9b9"><path d="M246.361 272.19l-12.41 2.482-2.704-3.155c-4.377-5.107-5.267-12.339-2.26-18.355h0l34.747-45.502s9.928-22.337 25.647-13.237-13.237 23.992-13.237 23.992l-17.373 27.301 1.655 14.064z"/><circle cx="324.956" cy="186.15" r="32.265"/><path d="M310.478 209.728l14.892 35.574 35.574-14.892-11.582-28.956c0-.827-38.883 8.273-38.883 8.273z"/></g><path d="M408.439 314.97c0 19.472-3.069 38.823-9.092 57.341l-2.416 7.429-11.582 52.948-12.41 3.309-9.1-11.582-18.201-13.237-13.237-21.51-14.892-24.819L305.1 302.8l-47.156-26.474-15.719-2.482 3.309-9.1 14.064-19.028 14.064-1.655 4.137-3.309 3.309 1.655 13.237-7.446 4.137 1.655 24.19 2.25 14.693-3.078 21.129-11.342 8.654 1.415 29.783 24.819a185.22 185.22 0 0 1 11.508 64.29z" fill="#575a89"/><path d="M60.39 403.305s7.41-12.559 4.28-14.025-16.422-7.311-16.422-7.311l-19.492-6.46S.631 333.709.013 370.059s20.479 45.089 20.479 45.089 18.816 40.493 29.474 34.036 21.323-28.376 21.323-28.376-19.22-10.332-10.899-17.502z" fill="#2f2e41"/><path opacity=".1" d="M399.413 307.764l-31.438 20.683-46.924 42.308-3.541-5.907-9.928-49.638h2.482l25.647-47.156 63.702 39.71z"/><path fill="#575a89" d="M335.711 263.09l-25.647 47.156h-9.1l-5.791 16.546-13.237 3.31 35.574 38.883 50.465-45.502 31.438-20.683-63.702-39.71z"/><path d="M299.86 162.16l-3.496 1.345a4.88 4.88 0 0 1-1.248-6.86l-6.46-.302a48.78 48.78 0 0 1 72.825-5.87c.294-1.013 3.5.958 4.809 2.956.44-1.648 3.446 6.32 4.509 11.952.492-1.875 2.385 1.152.727 4.057 1.051-.154 1.525 2.535.712 4.032 1.149-.54.956 2.669-.291 4.813 1.64-.146-12.935 22.476-18.837 35.696-1.714-7.873-3.64-16.164-9.166-22.029-.939-.997-1.968-1.905-2.995-2.811l-5.554-4.902c-6.458-5.7-12.332-12.736-20.935-14.866-5.912-1.464-9.651-1.795-6.429-8.457-2.911 1.215-5.629 3.021-8.567 4.15.039-.931.45-1.973.393-2.904z" fill="#2f2e41"/><circle cx="341.088" cy="189.873" r="5.791" fill="#ffb9b9"/><path fill="#607d8b" d="M178.439 59.71h28v28h-28z"/><path d="M223.439 71.71h-34v-34h34zm-32.522-1.478h31.043V39.188h-31.043z" fill="#3f3d56"/><path fill="#607d8b" d="M73.646 146.251l7.688 26.924-26.924 7.688-7.688-26.924z"/><path d="M74.463 192.817l-9.336-32.693 32.693-9.336 9.336 32.693zm-7.508-31.678l8.524 29.85 29.85-8.524-8.524-29.85z" fill="#3f3d56"/><path fill="#607d8b" d="M93.494 27.32L74.375 47.777 53.918 28.658 73.037 8.202z"/><path d="M54.001 52.004l23.215-24.841 24.841 23.215-23.215 24.841zm23.286-22.751L56.09 51.933l22.681 21.196 21.196-22.681zm948.945-23.891h-260.17V0H648.091v5.362H386.849a17.6 17.6 0 0 0-17.599 17.599v356.252a17.6 17.6 0 0 0 17.599 17.599h639.383c9.719 0 17.599-7.879 17.599-17.599V22.961a17.6 17.6 0 0 0-17.599-17.599z" fill="#3f3d56"/><g fill="#607d8b"><path d="M392.845 36.464h627.391v353.913H392.845z"/><circle cx="706.004" cy="20.377" r="6.435"/></g><path opacity=".1" d="M840.813 390.377H392.845V36.464l447.968 353.913z"/><circle cx="491.013" cy="303.587" r="60.307" fill="#f2f2f2"/><g fill="#3f3d56"><path d="M504.438 348.913a75.02 75.02 0 1 1 75.016-75.016c-.047 41.411-33.605 74.969-75.016 75.016zm0-149.051c-40.889 0-74.035 33.147-74.035 74.035s33.147 74.035 74.035 74.035 74.035-33.147 74.035-74.035c-.046-40.869-33.166-73.989-74.035-74.035zm347.954 27.47h58.605v12.246h-58.605z"/><use xlink:href="#C"/><use xlink:href="#C" y="16.619"/><use xlink:href="#C" y="33.239"/><use xlink:href="#C" y="49.858"/><use xlink:href="#C" y="66.478"/></g><path fill="#f2f2f2" d="M957.356 43.644h24.492v24.492h-24.492z"/><path d="M993.219 79.507h-29.74v-29.74h29.74zm-28.447-1.293h27.154V51.06h-27.154zm96.674 305.728h-61.229v-4.412c0-.232-.092-.454-.256-.619a.87.87 0 0 0-.619-.256h-20.993c-.232 0-.454.092-.619.256a.87.87 0 0 0-.256.619v4.412h-13.121v-4.412c0-.232-.092-.454-.256-.619a.87.87 0 0 0-.619-.256h-20.993c-.232 0-.454.092-.619.256a.87.87 0 0 0-.256.619v4.412h-13.121v-4.412c0-.232-.092-.454-.256-.619a.87.87 0 0 0-.619-.256h-20.993c-.232 0-.454.092-.619.256a.87.87 0 0 0-.256.619v4.412h-13.121v-4.412c0-.232-.092-.454-.256-.619a.87.87 0 0 0-.619-.256h-20.993c-.232 0-.454.092-.619.256a.87.87 0 0 0-.256.619v4.412h-13.121v-4.412c0-.232-.092-.454-.256-.619a.87.87 0 0 0-.619-.256h-20.993c-.232 0-.454.092-.619.256a.87.87 0 0 0-.256.619v4.412h-13.121v-4.412c0-.232-.092-.454-.256-.619a.87.87 0 0 0-.619-.256h-20.993c-.232 0-.454.092-.619.256a.87.87 0 0 0-.256.619v4.412H785.04v-4.412c0-.232-.092-.454-.256-.619a.87.87 0 0 0-.619-.256H619.72c-.232 0-.454.092-.619.256a.87.87 0 0 0-.256.619v4.412h-13.121v-4.412c0-.232-.092-.454-.256-.619a.87.87 0 0 0-.619-.256h-20.993c-.232 0-.454.092-.619.256a.87.87 0 0 0-.256.619v4.412H569.86v-4.412c0-.232-.092-.454-.256-.619a.87.87 0 0 0-.619-.256h-20.993c-.232 0-.454.092-.619.256a.87.87 0 0 0-.256.619v4.412h-13.121v-4.412c0-.232-.092-.454-.256-.619a.87.87 0 0 0-.619-.256h-20.993c-.232 0-.454.092-.619.256a.87.87 0 0 0-.256.619v4.412h-13.121v-4.412c0-.232-.092-.454-.256-.619a.87.87 0 0 0-.619-.256h-20.993c-.232 0-.454.092-.619.256a.87.87 0 0 0-.256.619v4.412h-13.121v-4.412c0-.232-.092-.454-.256-.619a.87.87 0 0 0-.619-.256H440.4c-.232 0-.454.092-.619.256a.87.87 0 0 0-.256.619v4.412h-13.121v-4.412c0-.232-.092-.454-.256-.619a.87.87 0 0 0-.619-.256h-20.993c-.232 0-.454.092-.619.256a.87.87 0 0 0-.256.619v4.412h-40.236c-11.594 0-20.993 9.399-20.993 20.993v9.492c0 11.594 9.399 20.993 20.993 20.993h698.014c11.594 0 20.993-9.399 20.993-20.993v-9.492c0-11.594-9.399-20.993-20.993-20.993z" fill="#3f3d56"/><defs ><path id="B" d="M305.1 321.001l-57.911-56.257-33.093 25.647-65.357 78.594 7.446 11.582 79.421-53.775 53.775 70.321 51.293-25.646-35.574-50.466z"/><path id="C" d="M781.541 131.989h200.307v5.248H781.541z"/></defs></svg>